<svg width="38" height="38" viewBox="0 0 38 38" fill="none" xmlns="http://www.w3.org/2000/svg">
<g filter="url(#filter0_d_24_82)">
<path fill-rule="evenodd" clip-rule="evenodd" d="M12.3333 6.66667C12.3333 4.89856 13.0357 3.20286 14.286 1.95262C15.5362 0.702379 17.2319 0 19 0C20.7681 0 22.4638 0.702379 23.714 1.95262C24.9643 3.20286 25.6667 4.89856 25.6667 6.66667C25.6667 8.43478 24.9643 10.1305 23.714 11.3807C22.4638 12.631 20.7681 13.3333 19 13.3333C17.2319 13.3333 15.5362 12.631 14.286 11.3807C13.0357 10.1305 12.3333 8.43478 12.3333 6.66667ZM12.3333 16.6667C10.1232 16.6667 8.00358 17.5446 6.44078 19.1074C4.87797 20.6702 4 22.7899 4 25C4 26.3261 4.52678 27.5979 5.46447 28.5355C6.40215 29.4732 7.67392 30 9 30H29C30.3261 30 31.5979 29.4732 32.5355 28.5355C33.4732 27.5979 34 26.3261 34 25C34 22.7899 33.122 20.6702 31.5592 19.1074C29.9964 17.5446 27.8768 16.6667 25.6667 16.6667H12.3333Z" fill="white"/>
</g>
<defs>
<filter id="filter0_d_24_82" x="0" y="0" width="38" height="38" filterUnits="userSpaceOnUse" color-interpolation-filters="sRGB">
<feFlood flood-opacity="0" result="BackgroundImageFix"/>
<feColorMatrix in="SourceAlpha" type="matrix" values="0 0 0 0 0 0 0 0 0 0 0 0 0 0 0 0 0 0 127 0" result="hardAlpha"/>
<feOffset dy="4"/>
<feGaussianBlur stdDeviation="2"/>
<feComposite in2="hardAlpha" operator="out"/>
<feColorMatrix type="matrix" values="0 0 0 0 0 0 0 0 0 0 0 0 0 0 0 0 0 0 0.25 0"/>
<feBlend mode="normal" in2="BackgroundImageFix" result="effect1_dropShadow_24_82"/>
<feBlend mode="normal" in="SourceGraphic" in2="effect1_dropShadow_24_82" result="shape"/>
</filter>
</defs>
</svg>
